<svg width="25" height="24" viewBox="0 0 25 24" fill="none" xmlns="http://www.w3.org/2000/svg">
<mask id="mask0_8437_2876" style="mask-type:alpha" maskUnits="userSpaceOnUse" x="0" y="0" width="25" height="24">
<rect x="0.5" width="24" height="24" fill="#D9D9D9"/>
</mask>
<g mask="url(#mask0_8437_2876)">
<path d="M12.5 17C13.6 17 14.5417 16.6083 15.325 15.825C16.1083 15.0417 16.5 14.1 16.5 13H8.5C8.5 14.1 8.89167 15.0417 9.675 15.825C10.4583 16.6083 11.4 17 12.5 17ZM7.5 9H11.5C11.5 8.45 11.3042 7.97917 10.9125 7.5875C10.5208 7.19583 10.05 7 9.5 7C8.95 7 8.47917 7.19583 8.0875 7.5875C7.69583 7.97917 7.5 8.45 7.5 9ZM13.5 9H17.5C17.5 8.45 17.3042 7.97917 16.9125 7.5875C16.5208 7.19583 16.05 7 15.5 7C14.95 7 14.4792 7.19583 14.0875 7.5875C13.6958 7.97917 13.5 8.45 13.5 9ZM12.5 22C11.25 22 10.0792 21.7625 8.9875 21.2875C7.89583 20.8125 6.94583 20.1708 6.1375 19.3625C5.32917 18.5542 4.6875 17.6042 4.2125 16.5125C3.7375 15.4208 3.5 14.25 3.5 13V2H21.5V13C21.5 14.25 21.2625 15.4208 20.7875 16.5125C20.3125 17.6042 19.6708 18.5542 18.8625 19.3625C18.0542 20.1708 17.1042 20.8125 16.0125 21.2875C14.9208 21.7625 13.75 22 12.5 22ZM12.5 20C14.4333 20 16.0833 19.3167 17.45 17.95C18.8167 16.5833 19.5 14.9333 19.5 13V4H5.5V13C5.5 14.9333 6.18333 16.5833 7.55 17.95C8.91667 19.3167 10.5667 20 12.5 20Z" fill="#236999"/>
</g>
</svg>
