<svg width="25" height="24" viewBox="0 0 25 24" fill="none" xmlns="http://www.w3.org/2000/svg">
<mask id="mask0_8437_2871" style="mask-type:alpha" maskUnits="userSpaceOnUse" x="0" y="0" width="25" height="24">
<rect x="0.5" width="24" height="24" fill="#D9D9D9"/>
</mask>
<g mask="url(#mask0_8437_2871)">
<path d="M13.5 23V17L11.4 15L10.4 19.4L3.5 18L3.9 16L8.7 17L10.3 8.9L8.5 9.6V13H6.5V8.3L10.45 6.6C11.0333 6.35 11.4625 6.1875 11.7375 6.1125C12.0125 6.0375 12.2667 6 12.5 6C12.85 6 13.175 6.09167 13.475 6.275C13.775 6.45833 14.0167 6.7 14.2 7L15.2 8.6C15.6333 9.3 16.2208 9.875 16.9625 10.325C17.7042 10.775 18.55 11 19.5 11V13C18.4 13 17.3708 12.7708 16.4125 12.3125C15.4542 11.8542 14.65 11.25 14 10.5L13.4 13.5L15.5 15.5V23H13.5ZM14 5.5C13.45 5.5 12.9792 5.30417 12.5875 4.9125C12.1958 4.52083 12 4.05 12 3.5C12 2.95 12.1958 2.47917 12.5875 2.0875C12.9792 1.69583 13.45 1.5 14 1.5C14.55 1.5 15.0208 1.69583 15.4125 2.0875C15.8042 2.47917 16 2.95 16 3.5C16 4.05 15.8042 4.52083 15.4125 4.9125C15.0208 5.30417 14.55 5.5 14 5.5Z" fill="#236999"/>
</g>
</svg>
