<svg width="25" height="24" viewBox="0 0 25 24" fill="none" xmlns="http://www.w3.org/2000/svg">
<mask id="mask0_8437_2609" style="mask-type:alpha" maskUnits="userSpaceOnUse" x="0" y="0" width="25" height="24">
<rect x="0.5" width="24" height="24" fill="#D9D9D9"/>
</mask>
<g mask="url(#mask0_8437_2609)">
<path d="M1.45 13.3C1.15 12.7 0.916667 12.0917 0.75 11.475C0.583333 10.8583 0.5 10.2333 0.5 9.6C0.5 7.73333 1.13333 6.16667 2.4 4.9C3.66667 3.63333 5.23333 3 7.1 3C8.15 3 9.15 3.22083 10.1 3.6625C11.05 4.10417 11.85 4.71667 12.5 5.5C13.15 4.71667 13.95 4.10417 14.9 3.6625C15.85 3.22083 16.85 3 17.9 3C19.7667 3 21.3333 3.63333 22.6 4.9C23.8667 6.16667 24.5 7.73333 24.5 9.6C24.5 10.2333 24.4167 10.8583 24.25 11.475C24.0833 12.0917 23.85 12.7 23.55 13.3C23.3667 12.9833 23.15 12.7 22.9 12.45C22.65 12.2 22.3583 12 22.025 11.85C22.175 11.4667 22.2917 11.0917 22.375 10.725C22.4583 10.3583 22.5 9.98333 22.5 9.6C22.5 8.3 22.0583 7.20833 21.175 6.325C20.2917 5.44167 19.2 5 17.9 5C16.55 5 15.5125 5.37083 14.7875 6.1125C14.0625 6.85417 13.3 7.68333 12.5 8.6C11.7 7.66667 10.9375 6.83333 10.2125 6.1C9.4875 5.36667 8.45 5 7.1 5C5.8 5 4.70833 5.44167 3.825 6.325C2.94167 7.20833 2.5 8.3 2.5 9.6C2.5 9.98333 2.54167 10.3583 2.625 10.725C2.70833 11.0917 2.825 11.4667 2.975 11.85C2.64167 12 2.35 12.2 2.1 12.45C1.85 12.7 1.63333 12.9833 1.45 13.3ZM0.5 22V20.425C0.5 19.6917 0.870833 19.1042 1.6125 18.6625C2.35417 18.2208 3.31667 18 4.5 18C4.71667 18 4.925 18.0042 5.125 18.0125C5.325 18.0208 5.51667 18.0417 5.7 18.075C5.46667 18.4083 5.29167 18.7667 5.175 19.15C5.05833 19.5333 5 19.9417 5 20.375V22H0.5ZM6.5 22V20.375C6.5 19.2917 7.05417 18.4167 8.1625 17.75C9.27083 17.0833 10.7167 16.75 12.5 16.75C14.3 16.75 15.75 17.0833 16.85 17.75C17.95 18.4167 18.5 19.2917 18.5 20.375V22H6.5ZM20 22V20.375C20 19.9417 19.9458 19.5333 19.8375 19.15C19.7292 18.7667 19.5667 18.4083 19.35 18.075C19.5333 18.0417 19.7208 18.0208 19.9125 18.0125C20.1042 18.0042 20.3 18 20.5 18C21.7 18 22.6667 18.2208 23.4 18.6625C24.1333 19.1042 24.5 19.6917 24.5 20.425V22H20ZM12.5 18.75C11.55 18.75 10.7 18.875 9.95 19.125C9.2 19.375 8.75833 19.6667 8.625 20H16.4C16.25 19.6667 15.8042 19.375 15.0625 19.125C14.3208 18.875 13.4667 18.75 12.5 18.75ZM4.5 17C3.95 17 3.47917 16.8042 3.0875 16.4125C2.69583 16.0208 2.5 15.55 2.5 15C2.5 14.4333 2.69583 13.9583 3.0875 13.575C3.47917 13.1917 3.95 13 4.5 13C5.06667 13 5.54167 13.1917 5.925 13.575C6.30833 13.9583 6.5 14.4333 6.5 15C6.5 15.55 6.30833 16.0208 5.925 16.4125C5.54167 16.8042 5.06667 17 4.5 17ZM20.5 17C19.95 17 19.4792 16.8042 19.0875 16.4125C18.6958 16.0208 18.5 15.55 18.5 15C18.5 14.4333 18.6958 13.9583 19.0875 13.575C19.4792 13.1917 19.95 13 20.5 13C21.0667 13 21.5417 13.1917 21.925 13.575C22.3083 13.9583 22.5 14.4333 22.5 15C22.5 15.55 22.3083 16.0208 21.925 16.4125C21.5417 16.8042 21.0667 17 20.5 17ZM12.5 16C11.6667 16 10.9583 15.7083 10.375 15.125C9.79167 14.5417 9.5 13.8333 9.5 13C9.5 12.15 9.79167 11.4375 10.375 10.8625C10.9583 10.2875 11.6667 10 12.5 10C13.35 10 14.0625 10.2875 14.6375 10.8625C15.2125 11.4375 15.5 12.15 15.5 13C15.5 13.8333 15.2125 14.5417 14.6375 15.125C14.0625 15.7083 13.35 16 12.5 16ZM12.5 12C12.2167 12 11.9792 12.0958 11.7875 12.2875C11.5958 12.4792 11.5 12.7167 11.5 13C11.5 13.2833 11.5958 13.5208 11.7875 13.7125C11.9792 13.9042 12.2167 14 12.5 14C12.7833 14 13.0208 13.9042 13.2125 13.7125C13.4042 13.5208 13.5 13.2833 13.5 13C13.5 12.7167 13.4042 12.4792 13.2125 12.2875C13.0208 12.0958 12.7833 12 12.5 12Z" fill="#236999"/>
</g>
</svg>
