<svg width="25" height="24" viewBox="0 0 25 24" fill="none" xmlns="http://www.w3.org/2000/svg">
<mask id="mask0_8437_2541" style="mask-type:alpha" maskUnits="userSpaceOnUse" x="0" y="0" width="25" height="24">
<rect x="0.5" width="24" height="24" fill="#D9D9D9"/>
</mask>
<g mask="url(#mask0_8437_2541)">
<path d="M12.5 21C12.2 21 11.9125 20.9458 11.6375 20.8375C11.3625 20.7292 11.1167 20.5667 10.9 20.35L4.2 13.625C3.61667 13.0417 3.1875 12.375 2.9125 11.625C2.6375 10.875 2.5 10.0917 2.5 9.275C2.5 7.55833 3.05833 6.08333 4.175 4.85C5.29167 3.61667 6.68333 3 8.35 3C9.15 3 9.90417 3.15833 10.6125 3.475C11.3208 3.79167 11.95 4.23333 12.5 4.8C13.0333 4.23333 13.6542 3.79167 14.3625 3.475C15.0708 3.15833 15.825 3 16.625 3C18.2917 3 19.6875 3.61667 20.8125 4.85C21.9375 6.08333 22.5 7.55 22.5 9.25C22.5 10.0667 22.3583 10.85 22.075 11.6C21.7917 12.35 21.3667 13.0167 20.8 13.6L14.075 20.35C13.8583 20.5667 13.6167 20.7292 13.35 20.8375C13.0833 20.9458 12.8 21 12.5 21ZM13.5 8C13.6667 8 13.825 8.04167 13.975 8.125C14.125 8.20833 14.2417 8.31667 14.325 8.45L16.025 11H20.175C20.2917 10.7167 20.3792 10.4292 20.4375 10.1375C20.4958 9.84583 20.525 9.55 20.525 9.25C20.4917 8.1 20.1083 7.1125 19.375 6.2875C18.6417 5.4625 17.725 5.05 16.625 5.05C16.1083 5.05 15.6125 5.15 15.1375 5.35C14.6625 5.55 14.25 5.84167 13.9 6.225L13.225 6.95C13.1417 7.05 13.0333 7.12917 12.9 7.1875C12.7667 7.24583 12.6333 7.275 12.5 7.275C12.3667 7.275 12.2333 7.24583 12.1 7.1875C11.9667 7.12917 11.85 7.05 11.75 6.95L11.075 6.225C10.725 5.84167 10.3167 5.54167 9.85 5.325C9.38333 5.10833 8.88333 5 8.35 5C7.25 5 6.33333 5.42083 5.6 6.2625C4.86667 7.10417 4.5 8.1 4.5 9.25C4.5 9.55 4.525 9.84583 4.575 10.1375C4.625 10.4292 4.70833 10.7167 4.825 11H9.5C9.66667 11 9.825 11.0417 9.975 11.125C10.125 11.2083 10.2417 11.3167 10.325 11.45L11.2 12.75L12.55 8.7C12.6167 8.5 12.7375 8.33333 12.9125 8.2C13.0875 8.06667 13.2833 8 13.5 8ZM13.8 11.25L12.45 15.3C12.3833 15.5 12.2583 15.6667 12.075 15.8C11.8917 15.9333 11.6917 16 11.475 16C11.3083 16 11.15 15.9583 11 15.875C10.85 15.7917 10.7333 15.6833 10.65 15.55L8.95 13H6.4L12.325 18.925C12.3583 18.9583 12.3875 18.9792 12.4125 18.9875C12.4375 18.9958 12.4667 19 12.5 19C12.5333 19 12.5625 18.9958 12.5875 18.9875C12.6125 18.9792 12.6417 18.9583 12.675 18.925L18.575 13H15.5C15.3333 13 15.175 12.9583 15.025 12.875C14.875 12.7917 14.75 12.6833 14.65 12.55L13.8 11.25Z" fill="#236999"/>
</g>
</svg>
