<svg width="29" height="28" viewBox="0 0 29 28" fill="none" xmlns="http://www.w3.org/2000/svg">
<path d="M1 14C1 6.54416 7.04416 0.5 14.5 0.5C21.9558 0.5 28 6.54416 28 14C28 21.4558 21.9558 27.5 14.5 27.5C7.04416 27.5 1 21.4558 1 14Z" stroke="#4F4F4F"/>
<path fill-rule="evenodd" clip-rule="evenodd" d="M12.0404 14.055V20.8247C12.0404 20.9226 12.1238 21 12.2292 21H14.937C15.0423 21 15.1257 20.9226 15.1257 20.8247V13.945H17.0875C17.184 13.945 17.2674 13.8757 17.2762 13.7819L17.4649 11.7115C17.4737 11.6096 17.3859 11.5199 17.2762 11.5199H15.1257V10.0486C15.1257 9.70218 15.4285 9.42504 15.7972 9.42504H17.3113C17.4166 9.42504 17.5 9.3476 17.5 9.24978V7.17525C17.5 7.07744 17.4166 7 17.3113 7H14.7571C13.2561 7 12.0404 8.12897 12.0404 9.52285V11.5199H10.6887C10.5834 11.5199 10.5 11.5974 10.5 11.6952V13.7656C10.5 13.8635 10.5834 13.9409 10.6887 13.9409H12.0404V14.0509V14.055Z" fill="#4F4F4F"/>
</svg>
