<svg width="29" height="28" viewBox="0 0 29 28" fill="none" xmlns="http://www.w3.org/2000/svg">
<path d="M1 14C1 6.54416 7.04416 0.5 14.5 0.5C21.9558 0.5 28 6.54416 28 14C28 21.4558 21.9558 27.5 14.5 27.5C7.04416 27.5 1 21.4558 1 14Z" stroke="#4F4F4F"/>
<path d="M18.1817 9.57566C17.7284 9.57566 17.3571 9.94305 17.3571 10.4003C17.3571 10.8576 17.7245 11.225 18.1817 11.225C18.639 11.225 19.0064 10.8576 19.0064 10.4003C19.0064 9.94305 18.639 9.57566 18.1817 9.57566ZM14.5234 10.6309C12.6161 10.6309 11.0645 12.1826 11.0645 14.0899C11.0645 15.9972 12.6161 17.5489 14.5234 17.5489C16.4308 17.5489 17.9824 15.9972 17.9824 14.0899C17.9824 12.1826 16.4308 10.6309 14.5234 10.6309ZM14.5234 16.306C13.3001 16.306 12.3074 15.3132 12.3074 14.0899C12.3074 12.8666 13.3001 11.8738 14.5234 11.8738C15.7468 11.8738 16.7395 12.8666 16.7395 14.0899C16.7395 15.3132 15.7468 16.306 14.5234 16.306ZM21.5 11.2172C21.5 8.88777 19.6122 7 17.2828 7H11.7172C9.38777 7 7.5 8.88777 7.5 11.2172V16.7828C7.5 19.1122 9.38777 21 11.7172 21H17.2828C19.6122 21 21.5 19.1122 21.5 16.7828V11.2172ZM20.1789 16.7828C20.1789 18.3814 18.8814 19.679 17.2828 19.679H11.7172C10.1186 19.679 8.82105 18.3814 8.82105 16.7828V11.2172C8.82105 9.61865 10.1186 8.32105 11.7172 8.32105H17.2828C18.8814 8.32105 20.1789 9.61865 20.1789 11.2172V16.7828Z" fill="#4F4F4F"/>
</svg>
