<svg width="25" height="24" viewBox="0 0 25 24" fill="none" xmlns="http://www.w3.org/2000/svg">
<mask id="mask0_8437_2584" style="mask-type:alpha" maskUnits="userSpaceOnUse" x="0" y="0" width="25" height="24">
<rect x="0.5" width="24" height="24" fill="#D9D9D9"/>
</mask>
<g mask="url(#mask0_8437_2584)">
<path d="M5 11C4.56667 11 4.20833 10.8583 3.925 10.575C3.64167 10.2917 3.5 9.93333 3.5 9.5C3.5 9.06667 3.64167 8.70833 3.925 8.425C4.20833 8.14167 4.56667 8 5 8C5.43333 8 5.79167 8.14167 6.075 8.425C6.35833 8.70833 6.5 9.06667 6.5 9.5C6.5 9.93333 6.35833 10.2917 6.075 10.575C5.79167 10.8583 5.43333 11 5 11ZM3.5 22V17H2.5V13C2.5 12.7167 2.59583 12.4792 2.7875 12.2875C2.97917 12.0958 3.21667 12 3.5 12H6.5C6.78333 12 7.02083 12.0958 7.2125 12.2875C7.40417 12.4792 7.5 12.7167 7.5 13V17H6.5V20H14.5V15H12.75C11.5667 15 10.5625 14.5875 9.7375 13.7625C8.9125 12.9375 8.5 11.9333 8.5 10.75C8.5 9.86667 8.7375 9.07917 9.2125 8.3875C9.6875 7.69583 10.3 7.18333 11.05 6.85C11.2333 5.76667 11.7375 4.85417 12.5625 4.1125C13.3875 3.37083 14.3667 3 15.5 3C16.6333 3 17.6125 3.37083 18.4375 4.1125C19.2625 4.85417 19.7667 5.76667 19.95 6.85C20.7 7.18333 21.3125 7.69583 21.7875 8.3875C22.2625 9.07917 22.5 9.86667 22.5 10.75C22.5 11.9333 22.0875 12.9375 21.2625 13.7625C20.4375 14.5875 19.4333 15 18.25 15H16.5V20H21.5V22H3.5ZM12.75 13H18.25C18.8833 13 19.4167 12.7833 19.85 12.35C20.2833 11.9167 20.5 11.3833 20.5 10.75C20.5 10.3 20.3792 9.89167 20.1375 9.525C19.8958 9.15833 19.5667 8.88333 19.15 8.7L18.1 8.25L17.95 7.15C17.85 6.53333 17.5708 6.02083 17.1125 5.6125C16.6542 5.20417 16.1167 5 15.5 5C14.8833 5 14.3458 5.20417 13.8875 5.6125C13.4292 6.02083 13.15 6.53333 13.05 7.15L12.9 8.25L11.85 8.7C11.4333 8.88333 11.1042 9.15833 10.8625 9.525C10.6208 9.89167 10.5 10.3 10.5 10.75C10.5 11.3833 10.7167 11.9167 11.15 12.35C11.5833 12.7833 12.1167 13 12.75 13Z" fill="#236999"/>
</g>
</svg>
