<svg width="25" height="24" viewBox="0 0 25 24" fill="none" xmlns="http://www.w3.org/2000/svg">
<mask id="mask0_8437_2755" style="mask-type:alpha" maskUnits="userSpaceOnUse" x="0" y="0" width="25" height="24">
<rect x="0.5" width="24" height="24" fill="#D9D9D9"/>
</mask>
<g mask="url(#mask0_8437_2755)">
<path d="M11.5 21V13.025C10.4333 13.025 9.40833 12.8208 8.425 12.4125C7.44167 12.0042 6.575 11.425 5.825 10.675C5.075 9.925 4.5 9.05833 4.1 8.075C3.7 7.09167 3.5 6.06667 3.5 5V3H5.5C6.55 3 7.56667 3.20417 8.55 3.6125C9.53333 4.02083 10.4 4.6 11.15 5.35C11.6667 5.86667 12.0958 6.43333 12.4375 7.05C12.7792 7.66667 13.0417 8.325 13.225 9.025C13.3083 8.90833 13.4 8.79583 13.5 8.6875C13.6 8.57917 13.7083 8.46667 13.825 8.35C14.575 7.6 15.4417 7.02083 16.425 6.6125C17.4083 6.20417 18.4333 6 19.5 6H21.5V8C21.5 9.06667 21.2958 10.0917 20.8875 11.075C20.4792 12.0583 19.9 12.925 19.15 13.675C18.4 14.425 17.5375 15 16.5625 15.4C15.5875 15.8 14.5667 16 13.5 16V21H11.5ZM11.5 11C11.5 10.2 11.3458 9.4375 11.0375 8.7125C10.7292 7.9875 10.2917 7.34167 9.725 6.775C9.15833 6.20833 8.5125 5.77083 7.7875 5.4625C7.0625 5.15417 6.3 5 5.5 5C5.5 5.8 5.65 6.56667 5.95 7.3C6.25 8.03333 6.68333 8.68333 7.25 9.25C7.81667 9.81667 8.46667 10.25 9.2 10.55C9.93333 10.85 10.7 11 11.5 11ZM13.5 14C14.3 14 15.0625 13.85 15.7875 13.55C16.5125 13.25 17.1583 12.8167 17.725 12.25C18.2917 11.6833 18.7292 11.0333 19.0375 10.3C19.3458 9.56667 19.5 8.8 19.5 8C18.7 8 17.9333 8.15417 17.2 8.4625C16.4667 8.77083 15.8167 9.20833 15.25 9.775C14.6833 10.3417 14.25 10.9875 13.95 11.7125C13.65 12.4375 13.5 13.2 13.5 14Z" fill="#236999"/>
</g>
</svg>
