<svg width="25" height="24" viewBox="0 0 25 24" fill="none" xmlns="http://www.w3.org/2000/svg">
<mask id="mask0_8437_2371" style="mask-type:alpha" maskUnits="userSpaceOnUse" x="0" y="0" width="25" height="24">
<rect x="0.5" width="24" height="24" fill="#D9D9D9"/>
</mask>
<g mask="url(#mask0_8437_2371)">
<path d="M12.5 13C11.5167 13 10.6875 12.6625 10.0125 11.9875C9.3375 11.3125 9 10.4833 9 9.5C9 8.51667 9.3375 7.6875 10.0125 7.0125C10.6875 6.3375 11.5167 6 12.5 6C13.4833 6 14.3125 6.3375 14.9875 7.0125C15.6625 7.6875 16 8.51667 16 9.5C16 10.4833 15.6625 11.3125 14.9875 11.9875C14.3125 12.6625 13.4833 13 12.5 13ZM12.5 11C12.9333 11 13.2917 10.8583 13.575 10.575C13.8583 10.2917 14 9.93333 14 9.5C14 9.06667 13.8583 8.70833 13.575 8.425C13.2917 8.14167 12.9333 8 12.5 8C12.0667 8 11.7083 8.14167 11.425 8.425C11.1417 8.70833 11 9.06667 11 9.5C11 9.93333 11.1417 10.2917 11.425 10.575C11.7083 10.8583 12.0667 11 12.5 11ZM12.5 22C10.1833 21.4167 8.27083 20.0875 6.7625 18.0125C5.25417 15.9375 4.5 13.6333 4.5 11.1V5L12.5 2L20.5 5V11.1C20.5 13.6333 19.7458 15.9375 18.2375 18.0125C16.7292 20.0875 14.8167 21.4167 12.5 22ZM12.5 4.125L6.5 6.375V11.1C6.5 12 6.625 12.875 6.875 13.725C7.125 14.575 7.46667 15.375 7.9 16.125C8.6 15.775 9.33333 15.5 10.1 15.3C10.8667 15.1 11.6667 15 12.5 15C13.3333 15 14.1333 15.1 14.9 15.3C15.6667 15.5 16.4 15.775 17.1 16.125C17.5333 15.375 17.875 14.575 18.125 13.725C18.375 12.875 18.5 12 18.5 11.1V6.375L12.5 4.125ZM12.5 17C11.9 17 11.3167 17.0667 10.75 17.2C10.1833 17.3333 9.64167 17.5167 9.125 17.75C9.60833 18.25 10.1333 18.6833 10.7 19.05C11.2667 19.4167 11.8667 19.7 12.5 19.9C13.1333 19.7 13.7333 19.4167 14.3 19.05C14.8667 18.6833 15.3917 18.25 15.875 17.75C15.3583 17.5167 14.8167 17.3333 14.25 17.2C13.6833 17.0667 13.1 17 12.5 17Z" fill="#236999"/>
</g>
</svg>
