<svg width="25" height="24" viewBox="0 0 25 24" fill="none" xmlns="http://www.w3.org/2000/svg">
<mask id="mask0_8437_2393" style="mask-type:alpha" maskUnits="userSpaceOnUse" x="0" y="0" width="25" height="24">
<rect x="0.5" width="24" height="24" fill="#D9D9D9"/>
</mask>
<g mask="url(#mask0_8437_2393)">
<path d="M2.5 21V19H6.5V15H4.5V13H6.6C6.8 11.75 7.35417 10.6708 8.2625 9.7625C9.17083 8.85417 10.25 8.3 11.5 8.1V3H18.5V7H13.5V8.1C14.75 8.3 15.8292 8.85417 16.7375 9.7625C17.6458 10.6708 18.2 11.75 18.4 13H20.5V15H18.5V19H22.5V21H2.5ZM8.5 19H11.5V15H8.5V19ZM13.5 19H16.5V15H13.5V19ZM8.65 13H16.35C16.1167 12.1167 15.6417 11.3958 14.925 10.8375C14.2083 10.2792 13.4 10 12.5 10C11.6 10 10.7917 10.2792 10.075 10.8375C9.35833 11.3958 8.88333 12.1167 8.65 13Z" fill="#236999"/>
</g>
</svg>
