<svg width="29" height="28" viewBox="0 0 29 28" fill="none" xmlns="http://www.w3.org/2000/svg">
<path d="M1 14C1 6.54416 7.04416 0.5 14.5 0.5C21.9558 0.5 28 6.54416 28 14C28 21.4558 21.9558 27.5 14.5 27.5C7.04416 27.5 1 21.4558 1 14Z" stroke="#4F4F4F"/>
<path d="M14.4519 6.87404C10.6015 6.87404 7.47013 9.99825 7.46876 13.8384C7.46686 15.1497 7.83683 16.4347 8.5359 17.545L8.70198 17.8084L7.99668 20.3784L10.6387 19.687L10.8938 19.8378C11.9653 20.4725 13.1938 20.8083 14.4467 20.8089H14.4493C18.2968 20.8089 21.4281 17.6844 21.4296 13.8441C21.4325 12.9287 21.2534 12.0219 20.9028 11.1761C20.5522 10.3303 20.037 9.56233 19.387 8.91663C18.7406 8.26737 17.9715 7.75254 17.1244 7.40193C16.2773 7.05131 15.369 6.87189 14.4519 6.87404Z" fill="white"/>
<path fill-rule="evenodd" clip-rule="evenodd" d="M7.63576 17.7637L6.52051 21.8278L10.6875 20.7372C11.8356 21.362 13.1282 21.6914 14.4437 21.6919H14.4471C18.7794 21.6919 22.3059 18.1731 22.3078 13.8489C22.3085 11.7532 21.4919 9.78271 20.0076 8.30023C18.5234 6.81775 16.5498 6.00107 14.4472 6C10.1143 6 6.58835 9.51816 6.58653 13.8427C6.58487 15.219 6.94677 16.5714 7.63576 17.7637ZM7.91348 13.8432C7.91476 10.249 10.8456 7.32489 14.4494 7.32489C15.3077 7.32286 16.1579 7.49078 16.9508 7.81892C17.7436 8.14706 18.4634 8.6289 19.0684 9.23656C19.6768 9.84091 20.159 10.5597 20.4872 11.3513C20.8154 12.143 20.9829 12.9917 20.9802 13.8484C20.9788 17.4428 18.048 20.3673 14.447 20.3673H14.4445C13.2719 20.3666 12.122 20.0525 11.1192 19.4585L10.8804 19.3173L8.40759 19.9644L9.06772 17.559L8.91228 17.3124C8.25798 16.2733 7.91171 15.0705 7.91348 13.8432Z" fill="#4F4F4F"/>
<path fill-rule="evenodd" clip-rule="evenodd" d="M12.534 10.3716C12.3865 10.0182 12.2313 10.0111 12.0911 10.005L11.7138 10C11.5825 10 11.3693 10.0531 11.189 10.2655C11.0087 10.4779 10.5 10.9913 10.5 12.0355C10.5 13.0796 11.2054 14.0886 11.3036 14.2303C11.4019 14.3721 12.6653 16.5832 14.6661 17.4338C16.3287 18.1408 16.667 18.0002 17.028 17.9649C17.3891 17.9295 18.1926 17.4515 18.3565 16.9559C18.5204 16.4603 18.5206 16.0357 18.4714 15.947C18.4223 15.8582 18.291 15.8054 18.094 15.6992C17.897 15.593 16.9294 15.0796 16.749 15.0088C16.5686 14.9379 16.4375 14.9027 16.3061 15.1151C16.1747 15.3275 15.798 15.8053 15.6831 15.947C15.5682 16.0886 15.4535 16.1064 15.2565 16.0003C15.0595 15.8942 14.4257 15.67 13.6737 14.947C13.0885 14.3845 12.6936 13.6897 12.5786 13.4774C12.4636 13.2651 12.5664 13.1502 12.6651 13.0444C12.7534 12.9493 12.8619 12.7966 12.9605 12.6727C13.0591 12.5488 13.0915 12.4603 13.1571 12.3189C13.2226 12.1775 13.1899 12.0532 13.1407 11.9471C13.0914 11.8411 12.709 10.7914 12.534 10.3716Z" fill="#4F4F4F"/>
</svg>
